<svg xmlns="http://www.w3.org/2000/svg" width="30.945" height="29.087" viewBox="0 0 30.945 29.087" fill="black">
  <g id="Group_6" data-name="Group 6" transform="translate(-849.389 -532.769)" fill="black">
    <g id="Group_1" data-name="Group 1" transform="translate(87.779 11.411)" fill="black">
      <g fill="black" id="international-space-station-svgrepo-com" transform="translate(802.611 528.903) rotate(-35.025)">
        <path fill="orange"  id="Path_2" data-name="Path 2" d="M25.087,6.41a.262.262,0,0,0,.253-.27V1.347a.262.262,0,0,0-.253-.27h-2.1a.262.262,0,0,0-.253.27V6.14a.262.262,0,0,0,.253.27h.8v.608H21.5a2.1,2.1,0,0,0-1.325-.479A2.247,2.247,0,0,0,18,8.614h-.216V7.953a.262.262,0,0,0-.253-.27H15.7l-.39-.752a.25.25,0,0,0-.222-.139H12.6V6.35h1.023a.262.262,0,0,0,.253-.27V.27A.262.262,0,0,0,13.621,0H11.079a.262.262,0,0,0-.253.27V6.08a.262.262,0,0,0,.253.27h1.015v.441H9.664a.262.262,0,0,0-.253.27V8.614H9.126A1.992,1.992,0,0,0,7.2,6.81a1.9,1.9,0,0,0-1.6.9,1.9,1.9,0,0,0-1.6-.9H2.819v-.4h.4a.262.262,0,0,0,.253-.27V1.347a.262.262,0,0,0-.253-.27h-2.1a.262.262,0,0,0-.253.27V6.14a.262.262,0,0,0,.253.27h.4v.4H.252A.262.262,0,0,0,0,7.08v3.61a.262.262,0,0,0,.253.27H1.52v.4h-.4a.262.262,0,0,0-.253.27v4.792a.262.262,0,0,0,.253.27h2.1a.262.262,0,0,0,.253-.27V11.629a.262.262,0,0,0-.253-.27h-.4v-.4H4.006a1.9,1.9,0,0,0,1.6-.9,1.906,1.906,0,0,0,1.6.9A1.992,1.992,0,0,0,9.127,9.155h.285v1.538a.262.262,0,0,0,.253.27h2.429V11.4H11.079a.262.262,0,0,0-.253.27v5.811a.262.262,0,0,0,.253.27h2.543a.262.262,0,0,0,.253-.27V11.675a.262.262,0,0,0-.253-.27H12.6v-.441h2.5a.251.251,0,0,0,.222-.139l.39-.752h1.831a.262.262,0,0,0,.253-.27V9.155h.218a2.247,2.247,0,0,0,2.169,2.061,2.1,2.1,0,0,0,1.325-.479h2.287v.622h-.8a.262.262,0,0,0-.253.27v4.792a.262.262,0,0,0,.253.27h2.1a.262.262,0,0,0,.253-.27V11.629a.262.262,0,0,0-.253-.27h-.8v-.622h.785a.262.262,0,0,0,.253-.27V7.289a.262.262,0,0,0-.253-.27H24.29V6.41ZM12.6,5.81V4.916h.77V5.81Zm-.5-2.9h-.762v-.93h.762Zm.505-.931h.77V2.9H12.6Zm-.505,1.471v.931h-.762V3.445Zm.505,0h.77v.931H12.6Zm.77-2.011H12.6V.541h.77ZM12.093.541v.894h-.762V.541ZM11.331,5.81V4.916h.762V5.81ZM1.558,10.42V7.35H2.949V10.42Zm1.9-3.069h.419V10.42H3.455ZM2.966,4.014v.673H1.374V4.014ZM1.374,3.473V2.8H2.966v.673ZM2.966,1.618V2.26H1.374V1.618ZM1.374,5.227H2.966V5.87H1.374ZM2.026,6.41h.288v.4H2.026ZM.5,7.35h.549v3.069H.5Zm.869,6.406v-.673H2.966v.673Zm1.593.541v.673H1.374V14.3ZM1.374,16.152V15.51H2.966v.643Zm1.593-3.61H1.374V11.9H2.966v.643Zm-.652-1.183H2.026v-.4h.288Zm2.066-.994V7.4a1.471,1.471,0,0,1,.967.941v1.08a1.471,1.471,0,0,1-.967.94ZM7.2,10.42A1.442,1.442,0,0,1,5.852,9.394V8.377A1.442,1.442,0,0,1,7.2,7.351,1.489,1.489,0,0,1,8.638,8.886,1.489,1.489,0,0,1,7.2,10.42Zm4.889,1.525v.894h-.762v-.894Zm.505,2.9h.77v.931H12.6Zm-.505.931h-.762V14.85h.762ZM12.6,14.31v-.931h.77v.931Zm-.505,0h-.762v-.931h.762Zm-.762,2.011h.762v.894h-.762Zm1.267.893v-.894h.77v.893Zm.77-5.27v.894H12.6v-.894ZM9.917,7.332h.7v3.091h-.7Zm5.028,3.091H11.12V7.332h3.825l.336.646v1.8Zm2.338-.891h-1.5V8.222h1.5Zm5.96,4.224v-.673h1.593v.673Zm1.593.541v.673H23.242V14.3Zm-1.593,1.856V15.51h1.593v.643Zm1.593-3.61H23.242V11.9h1.593Zm-6.34-3.665a1.839,1.839,0,0,1,.691-1.452v2.9A1.839,1.839,0,0,1,18.495,8.878Zm1.68,1.8a1.573,1.573,0,0,1-.484-.076V7.156a1.574,1.574,0,0,1,.484-.076A1.616,1.616,0,0,1,21.25,7.5a.244.244,0,0,0,.051.034v2.693a.251.251,0,0,0-.052.035,1.616,1.616,0,0,1-1.075.416Zm4.649-.479H21.807V7.559h3.018Zm.011-6.183v.673H23.243V4.014Zm-1.593-.541V2.8h1.593v.673Zm1.592-1.855V2.26H23.242V1.618Zm-1.593,3.61h1.593V5.87H23.242Z" transform="translate(-37.588 -17.797)"/>
      </g>
    </g>
  </g>
</svg>
