<svg xmlns="http://www.w3.org/2000/svg" width="25" height="25" viewBox="0 0 25 25">
  <g id="Group_2" data-name="Group 2" transform="translate(-802.611 -463.318)">
    <g id="Group_1" data-name="Group 1">
      <g id="international-space-station-svgrepo-com" transform="matrix(0.819, -0.574, 0.574, 0.819, 802.611, 528.903)">
        <path id="Path_2" data-name="Path 2" d="M113.2,28.926a1.182,1.182,0,0,0,1.14-1.22V6.079a1.182,1.182,0,0,0-1.14-1.22h-9.465a1.182,1.182,0,0,0-1.14,1.22V27.706a1.182,1.182,0,0,0,1.14,1.22h3.593V31.67H97.015a9.459,9.459,0,0,0-5.98-2.163c-5.061,0-9.242,4.1-9.795,9.363h-.975V35.885a1.182,1.182,0,0,0-1.14-1.22H70.865l-1.759-3.392a1.13,1.13,0,0,0-1-.628H56.851V28.655h4.615a1.182,1.182,0,0,0,1.14-1.22V1.22A1.182,1.182,0,0,0,61.465,0H49.992a1.182,1.182,0,0,0-1.14,1.22V27.435a1.182,1.182,0,0,0,1.14,1.22h4.579v1.989H43.61a1.182,1.182,0,0,0-1.14,1.22V38.87H41.182a8.988,8.988,0,0,0-8.673-8.143,8.594,8.594,0,0,0-7.216,4.065,8.594,8.594,0,0,0-7.216-4.065H12.723v-1.8h1.8a1.182,1.182,0,0,0,1.14-1.22V6.079a1.182,1.182,0,0,0-1.14-1.22H5.06a1.182,1.182,0,0,0-1.14,1.22V27.706a1.182,1.182,0,0,0,1.14,1.22h1.8v1.8H1.14A1.182,1.182,0,0,0,0,31.946V48.235a1.182,1.182,0,0,0,1.14,1.22H6.862v1.8H5.06a1.182,1.182,0,0,0-1.14,1.22V74.1a1.182,1.182,0,0,0,1.14,1.22h9.465a1.182,1.182,0,0,0,1.14-1.22V52.475a1.182,1.182,0,0,0-1.14-1.22h-1.8v-1.8h5.354a8.594,8.594,0,0,0,7.216-4.065,8.6,8.6,0,0,0,7.216,4.065,8.988,8.988,0,0,0,8.674-8.146H42.47v6.942a1.182,1.182,0,0,0,1.14,1.22H54.571V51.46H49.992a1.182,1.182,0,0,0-1.14,1.22V78.9a1.182,1.182,0,0,0,1.14,1.22H61.466a1.182,1.182,0,0,0,1.14-1.22V52.68a1.182,1.182,0,0,0-1.14-1.22H56.851V49.471H68.11a1.131,1.131,0,0,0,1-.628l1.759-3.392h8.261a1.182,1.182,0,0,0,1.14-1.22V41.309h.982a10.137,10.137,0,0,0,9.788,9.3,9.461,9.461,0,0,0,5.977-2.161h10.319v2.808h-3.593a1.182,1.182,0,0,0-1.14,1.22V74.1a1.182,1.182,0,0,0,1.14,1.22H113.2a1.182,1.182,0,0,0,1.14-1.22V52.475a1.182,1.182,0,0,0-1.14-1.22h-3.593V48.448h3.543a1.182,1.182,0,0,0,1.14-1.22V32.89a1.182,1.182,0,0,0-1.14-1.22h-3.543V28.926Zm-56.353-2.71V22.184h3.475v4.031ZM54.571,13.108H51.132V8.91h3.439Zm2.279-4.2h3.475v4.2H56.851Zm-2.279,6.637v4.2H51.132v-4.2Zm2.279,0h3.475v4.2H56.851Zm3.475-9.076H56.851V2.439h3.475ZM54.571,2.439V6.471H51.132V2.439ZM51.132,26.216V22.184h3.439v4.031Zm-44.1,20.8V33.166h6.279v13.85Zm8.559-13.85h1.892v13.85H15.594ZM13.385,18.112v3.036H6.2V18.112ZM6.2,15.673V12.636h7.186v3.036ZM13.385,7.3v2.9H6.2V7.3ZM6.2,23.587h7.186v2.9H6.2Zm2.942,5.338h1.3v1.8h-1.3Zm-6.862,4.24H4.755v13.85H2.279ZM6.2,62.07V59.034h7.186V62.07Zm7.186,2.439v3.036H6.2V64.509ZM6.2,72.884v-2.9h7.186v2.9Zm7.186-16.289H6.2V53.7h7.186v2.9Zm-2.942-5.338h-1.3v-1.8h1.3Zm9.322-4.484V33.41a6.637,6.637,0,0,1,4.362,4.244v4.875A6.637,6.637,0,0,1,19.765,46.772Zm12.744.244a6.506,6.506,0,0,1-6.1-4.63V37.8a6.506,6.506,0,0,1,6.1-4.63,6.717,6.717,0,0,1,6.471,6.925A6.717,6.717,0,0,1,32.509,47.016ZM54.571,53.9v4.032H51.132V53.9Zm2.279,13.108h3.475v4.2H56.851Zm-2.279,4.2H51.132v-4.2h3.439Zm2.279-6.637v-4.2h3.475v4.2Zm-2.279,0H51.132v-4.2h3.439Zm-3.439,9.076h3.439v4.032H51.132Zm5.719,4.031V73.644h3.475v4.031ZM60.326,53.9v4.032H56.851V53.9ZM44.75,33.084H47.9V47.031H44.75ZM67.438,47.031H50.177V33.084H67.438L68.952,36v8.11Zm10.548-4.02H71.231V37.1h6.755ZM104.878,62.07V59.034h7.186V62.07Zm7.186,2.439v3.036h-7.186V64.509Zm-7.186,8.375v-2.9h7.186v2.9Zm7.186-16.289h-7.186V53.7h7.186ZM83.456,40.058a8.3,8.3,0,0,1,3.117-6.551v13.1A8.3,8.3,0,0,1,83.456,40.058Zm7.58,8.111a7.1,7.1,0,0,1-2.183-.344V32.29a7.1,7.1,0,0,1,2.183-.344,7.292,7.292,0,0,1,4.854,1.883,1.1,1.1,0,0,0,.229.154V46.135a1.133,1.133,0,0,0-.234.156A7.291,7.291,0,0,1,91.035,48.169Zm20.979-2.161H98.4v-11.9h13.616Zm.05-27.9v3.036h-7.186V18.112Zm-7.186-2.439V12.636h7.186v3.036ZM112.064,7.3v2.9h-7.186V7.3Zm-7.186,16.289h7.186v2.9h-7.186Z" transform="translate(0 0)"/>
      </g>
    </g>
  </g>
</svg>
