    <svg
      xmlns="http://www.w3.org/2000/svg"
      width="100%"
      height="100%"
      viewBox="0 0 664 669"
    >
      <g data-name="Group 5" transform="translate(-542 -236)">
        <path
          fill="#fff"
          d="M0 0H664V669H0z"
          data-name="Rectangle 1"
          transform="translate(542 236)"
        ></path>
        <g data-name="Group 4" transform="translate(-8 72.043)">
          <g data-name="Group 3">
            <g data-name="Group 2" transform="translate(41 -221.361)">
              <g data-name="Group 1" transform="translate(802.611 463.318)">
                <g transform="rotate(-35.02 147.775 46.598)">
                  <path
                    d="M160.967 41.13a1.68 1.68 0 001.621-1.734V8.643a1.68 1.68 0 00-1.621-1.734h-13.459a1.68 1.68 0 00-1.621 1.734V39.4a1.68 1.68 0 001.621 1.734h5.109v3.9h-14.669a13.45 13.45 0 00-8.5-3.076c-7.2 0-13.141 5.834-13.928 13.314h-1.386v-4.247a1.68 1.68 0 00-1.621-1.734h-11.749l-2.5-4.824a1.607 1.607 0 00-1.417-.893h-16.01v-2.828H87.4a1.68 1.68 0 001.621-1.734V1.734A1.68 1.68 0 0087.4 0H71.085a1.68 1.68 0 00-1.621 1.734v37.277a1.68 1.68 0 001.621 1.734H77.6v2.829H62.01a1.68 1.68 0 00-1.621 1.734v9.962h-1.831c-.8-6.524-6.023-11.579-12.333-11.579a12.22 12.22 0 00-10.261 5.78 12.22 12.22 0 00-10.264-5.78h-7.608V41.13h2.562a1.68 1.68 0 001.62-1.73V8.643a1.68 1.68 0 00-1.621-1.734H7.195a1.68 1.68 0 00-1.621 1.734V39.4a1.68 1.68 0 001.621 1.73h2.562v2.56H1.621A1.68 1.68 0 000 45.425v23.162a1.68 1.68 0 001.621 1.734h8.136v2.56H7.195a1.68 1.68 0 00-1.621 1.734v30.753a1.68 1.68 0 001.621 1.732h13.459a1.68 1.68 0 001.621-1.734v-30.75a1.68 1.68 0 00-1.621-1.734h-2.563v-2.56H25.7a12.221 12.221 0 0010.261-5.78 12.222 12.222 0 0010.261 5.78c6.312 0 11.537-5.057 12.333-11.583h1.83v9.871a1.68 1.68 0 001.621 1.734H77.6v2.829h-6.51a1.68 1.68 0 00-1.621 1.734v37.276a1.68 1.68 0 001.621 1.734H87.4a1.68 1.68 0 001.621-1.734V74.906a1.68 1.68 0 00-1.621-1.734h-6.563v-2.829h16.009a1.608 1.608 0 001.417-.893l2.5-4.824h11.747a1.68 1.68 0 001.621-1.734v-4.154h1.4c.825 7.436 6.75 13.223 13.917 13.223a13.452 13.452 0 008.5-3.073h14.672v3.993h-5.109a1.68 1.68 0 00-1.621 1.734v30.753a1.68 1.68 0 001.621 1.734h13.459a1.68 1.68 0 001.621-1.734V74.616a1.68 1.68 0 00-1.621-1.734h-5.109v-3.993h5.039a1.68 1.68 0 001.621-1.734V46.766a1.68 1.68 0 00-1.621-1.734h-5.038v-3.9zm-80.13-3.854v-5.732h4.941v5.732zM77.6 18.638h-4.89V12.67h4.89zm3.241-5.968h4.941v5.968h-4.945zM77.6 22.107v5.968h-4.89v-5.968zm3.241 0h4.941v5.968h-4.945zM85.779 9.2h-4.942V3.469h4.941zM77.6 3.469V9.2h-4.89V3.469zm-4.89 33.808v-5.733h4.89v5.732zM10 66.853V47.16h8.929v19.693zm12.17-19.694h2.691v19.693h-2.688zm-3.14-21.405v4.317H8.815v-4.317zM8.815 22.285v-4.317h10.218v4.317zm10.218-11.907V14.5H8.815v-4.122zM8.815 33.539h10.218v4.122H8.815zM13 41.13h1.85v2.56H13zm-9.759 6.029h3.52v19.693h-3.52zm5.574 41.1v-4.317h10.218v4.317zm10.218 3.469v4.317H8.815v-4.318zM8.815 103.635v-4.122h10.218v4.122zm10.218-23.162H8.815v-4.122h10.218v4.122zm-4.183-7.591H13v-2.56h1.85zm13.25-6.376v-19a9.437 9.437 0 016.2 6.035v6.932a9.438 9.438 0 01-6.2 6.033zm18.121.346a9.251 9.251 0 01-8.676-6.584v-6.524a9.251 9.251 0 018.676-6.584c5.073 0 9.2 4.417 9.2 9.847s-4.121 9.846-9.195 9.846zM77.6 76.641v5.732h-4.89v-5.732zm3.241 18.639h4.941v5.968h-4.945zm-3.241 5.968h-4.89v-5.969h4.89zm3.241-9.437v-5.969h4.941v5.968zm-3.241 0h-4.89v-5.969h4.89zm-4.89 12.906h4.89v5.732h-4.89zm8.132 5.732v-5.732h4.941v5.732zm4.941-33.808v5.732h-4.946v-5.732zm-22.148-29.6h4.475v19.834h-4.479zm32.257 19.834H71.347V47.043h24.545l2.152 4.15v11.531zm15-5.716h-9.605v-8.4h9.605zm38.238 27.1v-4.317h10.218v4.317zm10.218 3.469v4.317h-10.22v-4.318zm-10.218 11.908v-4.123h10.218v4.122zm10.218-23.162h-10.22v-4.123h10.218zm-40.681-23.515a11.8 11.8 0 014.432-9.315v18.63a11.8 11.8 0 01-4.432-9.315zm10.778 11.534a10.1 10.1 0 01-3.1-.49V45.914a10.1 10.1 0 013.1-.49 10.369 10.369 0 016.9 2.677 1.569 1.569 0 00.325.219V65.6a1.611 1.611 0 00-.333.222 10.367 10.367 0 01-6.892 2.671zm29.83-3.073h-19.361V48.5h19.361zm.071-39.666v4.317h-10.218v-4.317zm-10.218-3.469v-4.317h10.218v4.317zm10.218-11.908V14.5h-10.218v-4.122zm-10.218 23.162h10.218v4.122h-10.218z"
                    data-name="Path 2"
                  ></path>
                </g>
              </g>
            </g>
            <path
              d="M3.12-84.48h15.36V0H3.12zm21.6 68.88V0H50.4q5.4 0 8.28-2.7t2.88-8.1v-29.04q0-5.4-2.88-8.1t-8.28-2.7H40.08v-18.24h21.48v-15.6H35.88q-5.4 0-8.28 2.7t-2.88 8.1v27.84q0 5.4 2.88 8.1t8.28 2.7H46.2v19.44zm43.08 0V0h25.68q5.4 0 8.28-2.7t2.88-8.1v-29.04q0-5.4-2.88-8.1t-8.28-2.7H83.16v-18.24h21.48v-15.6H78.96q-5.4 0-8.28 2.7t-2.88 8.1v27.84q0 5.4 2.88 8.1t8.28 2.7h10.32v19.44z"
              data-name="Path 4"
              transform="translate(654 414)"
            ></path>
            <path
              d="M42.96-84.48H3.12v15.6h12.24V0h15.36v-68.88h12.24zm38.16 0H49.2V0h15.36v-68.88h12.36v18.24h-8.88v17.4L78.96 0H94.8L82.92-35.28a12.882 12.882 0 006.66-2.1q2.7-1.86 2.7-6.18v-30.12q0-5.4-2.88-8.1t-8.28-2.7zM148.8 0h-16.32L123-46.44 113.76 0H97.32l17.88-84.48h15.84zm41.16-15.6h-21.24v-53.28h21.24v-15.6h-25.44q-5.16 0-8.16 2.34t-3 7.74v63.6q0 5.4 2.88 8.1t8.28 2.7h25.44zM211.56 0v-34.68L225 0h16.32L223.8-42.24l17.52-42.24H225l-13.44 33.6v-33.6H196.2V0zm34.8-84.48V0h36.6v-15.6h-21.24v-19.44h17.64v-15.6h-17.64v-18.24h21.24v-15.6zm74.76 0H289.2V0h15.36v-68.88h12.36v18.24h-8.88v17.4L318.96 0h15.84l-11.88-35.28a12.882 12.882 0 006.66-2.1q2.7-1.86 2.7-6.18v-30.12q0-5.4-2.88-8.1t-8.28-2.7z"
              data-name="Path 3"
              transform="translate(775 545)"
            ></path>
          </g>
          <path
            fill="#707070"
            d="M14.72-10.4h10.24V0H14.72zm12.64 0H37.6V0H27.36zm-25.28 0h10.24V0H2.08zm39.68-45.92H52v45.92h13.36V0h-23.6zM76.96 0H90.8a7.774 7.774 0 005.52-1.8 7.058 7.058 0 001.92-5.4v-41.92a7.058 7.058 0 00-1.92-5.4 7.774 7.774 0 00-5.52-1.8H76.96a7.774 7.774 0 00-5.52 1.8 7.058 7.058 0 00-1.92 5.4V-7.2a7.058 7.058 0 001.92 5.4A7.774 7.774 0 0076.96 0zm2.8-45.92H88v35.52h-8.24zM135.6 0h-10.88l-6.32-30.96L112.24 0h-10.96l11.92-56.32h10.56zm24.64 0a7.774 7.774 0 005.52-1.8 7.058 7.058 0 001.92-5.4v-41.92a7.058 7.058 0 00-1.92-5.4 7.774 7.774 0 00-5.52-1.8h-21.28V0zM149.2-45.92h8.24v35.52h-8.24zm22.64-10.4h10.24V0h-10.24zM206.4 0h8.32v-56.32h-10.16v27.2l-10-27.2h-8.32V0h10.16v-24.56zm40.88 0v-33.76h-15.04v10.48h4.96v12.88h-8.08v-35.52h18.16v-10.4h-20.96a8.624 8.624 0 00-5.44 1.56q-2 1.56-2 5.16v42.4a7.058 7.058 0 001.92 5.4 7.774 7.774 0 005.52 1.8z"
            data-name="Path 5"
            transform="translate(758 684)"
          ></path>
        </g>
        <path
          d="M6.06.21A5.178 5.178 0 014.013-.2a5.043 5.043 0 01-1.65-1.117 5.344 5.344 0 01-1.1-1.665 5.178 5.178 0 01-.4-2.047 5.178 5.178 0 01.4-2.048 5.253 5.253 0 011.1-1.658 5.2 5.2 0 011.65-1.117 5.134 5.134 0 012.062-.413 5.043 5.043 0 012.04.413A5.226 5.226 0 019.757-8.73a5.253 5.253 0 011.1 1.658 5.178 5.178 0 01.4 2.048 5.178 5.178 0 01-.4 2.047 5.344 5.344 0 01-1.1 1.665A5.043 5.043 0 018.108-.2 5.178 5.178 0 016.06.21zm0-1.01a4.1 4.1 0 001.64-.318A3.931 3.931 0 009-2.01a4.108 4.108 0 00.855-1.342 4.44 4.44 0 00.307-1.657 4.44 4.44 0 00-.307-1.658 4.108 4.108 0 00-.862-1.343 4.027 4.027 0 00-1.3-.9 3.977 3.977 0 00-1.62-.33 4.015 4.015 0 00-1.635.33 4.114 4.114 0 00-1.305.9 4.047 4.047 0 00-.862 1.342 4.44 4.44 0 00-.306 1.658 4.44 4.44 0 00.308 1.657 4.108 4.108 0 00.855 1.343 3.931 3.931 0 001.3.892A4.1 4.1 0 006.06-.8zm2.37-2.58a2.907 2.907 0 01-.952.87 2.618 2.618 0 01-1.342.345 2.989 2.989 0 01-1.156-.213 2.68 2.68 0 01-.9-.6 2.633 2.633 0 01-.58-.907 3.141 3.141 0 01-.2-1.14 2.944 2.944 0 01.21-1.117 2.686 2.686 0 01.592-.9 2.783 2.783 0 01.9-.6 2.894 2.894 0 011.133-.218 2.607 2.607 0 011.35.345 2.931 2.931 0 01.945.87l-.81.585a2.146 2.146 0 00-.6-.555 1.525 1.525 0 00-.84-.24 1.744 1.744 0 00-.713.143 1.688 1.688 0 00-.555.39 1.744 1.744 0 00-.36.585 2.042 2.042 0 00-.128.727 1.9 1.9 0 00.128.69 1.761 1.761 0 00.36.577 1.786 1.786 0 00.555.4 1.669 1.669 0 00.713.15 1.553 1.553 0 00.863-.247 1.927 1.927 0 00.593-.578zm5.28.945q.21.24.473.488a3.326 3.326 0 00.592.442 3.257 3.257 0 00.735.315 3.1 3.1 0 00.885.12 2.39 2.39 0 001.545-.45 1.482 1.482 0 00.56-1.21 1.381 1.381 0 00-.63-1.237 5.473 5.473 0 00-1.815-.667 5.536 5.536 0 01-1.17-.375 3.332 3.332 0 01-.908-.6 2.563 2.563 0 01-.592-.832 2.615 2.615 0 01-.21-1.072 2.661 2.661 0 01.21-1.05 2.429 2.429 0 01.63-.87 3.143 3.143 0 011.05-.6 4.317 4.317 0 011.455-.225 4.5 4.5 0 011.268.158 3.932 3.932 0 01.907.382 2.776 2.776 0 01.6.465q.225.24.345.39l-.96.885q-.09-.105-.27-.277a2.526 2.526 0 00-.458-.338 2.947 2.947 0 00-.645-.277 2.9 2.9 0 00-.847-.113 2.384 2.384 0 00-.825.127 1.746 1.746 0 00-.57.33 1.258 1.258 0 00-.33.458 1.33 1.33 0 00-.1.51 1.218 1.218 0 00.158.638 1.5 1.5 0 00.457.465 2.931 2.931 0 00.743.345q.443.142 1.013.278a7.661 7.661 0 011.087.352 3.369 3.369 0 01.952.585A2.68 2.68 0 0119.7-4a3.065 3.065 0 01.248 1.3 2.612 2.612 0 01-.27 1.185 2.923 2.923 0 01-.743.938 3.405 3.405 0 01-1.115.614 4.339 4.339 0 01-1.4.218A4.661 4.661 0 0115.142.09a5.229 5.229 0 01-1.05-.42 4.5 4.5 0 01-.825-.563 4.025 4.025 0 01-.577-.607zM23.925-4.47l-3.45-5.535h1.6L24.69-5.73l2.61-4.275h1.545L25.38-4.47V0h-1.455zm6.21-5.535h1.455l5.46 7.815v-7.815h1.41V0h-1.44l-5.475-7.83V0h-1.41zm10.6 0h6.3v1.275H42.18v2.91h3.66v1.29h-3.66v3.24h5.22V0h-6.66zm10.8 4.83l-3.3-4.83h1.74L52.41-6.36l2.4-3.645h1.575l-3.21 4.785L56.73 0h-1.725L52.32-4.035 49.635 0h-1.59zm9.135-3.57h-3.58v-1.26h8.595v1.26h-3.57V0h-1.44zm6.51-1.26h3.2a4.4 4.4 0 011.62.262 3.127 3.127 0 011.072.675 2.507 2.507 0 01.6.938 3.146 3.146 0 01.188 1.065 3.18 3.18 0 01-.45 1.695 2.688 2.688 0 01-1.395 1.1L74.355 0h-1.62L70.59-4.1h-2.01V0h-1.4zM70.5-5.31a1.944 1.944 0 001.417-.465 1.668 1.668 0 00.473-1.245 1.634 1.634 0 00-.51-1.28 2.036 2.036 0 00-1.41-.458h-1.89v3.45zm8.235-4.7h1.47L84.12 0h-1.6l-1.04-2.79h-4.11L76.335 0H74.82zm2.31 6l-1.62-4.39L77.79-4z"
          data-name="Path 6"
          transform="translate(1102 886)"
        ></path>
      </g>
    </svg>
 