<svg xmlns="http://www.w3.org/2000/svg" width="34" height="34" viewBox="0 0 34 34">
  <g id="Group_12" data-name="Group 12" transform="translate(-844 -529)">
    <g id="Group_6" data-name="Group 6">
      <path id="Path_7" data-name="Path 7" d="M17,0A17,17,0,1,1,0,17,17,17,0,0,1,17,0Z" transform="translate(844 529)" fill="#fff"/>
    </g>
    <g id="satellite-svgrepo-com_1_" data-name="satellite-svgrepo-com (1)" transform="translate(868.042 524.902) rotate(45)">
      <g id="Group_8" data-name="Group 8" transform="translate(7.647 27.394)">
        <g id="Group_7" data-name="Group 7" transform="translate(0 0)">
          <path id="Path_8" data-name="Path 8" d="M194.468,442.979h-3.723v.129a2.256,2.256,0,0,0,2.238,2.235h.756a2.256,2.256,0,0,0,2.238-2.235v-.129Z" transform="translate(-190.745 -442.979)"/>
        </g>
      </g>
      <g id="Group_10" data-name="Group 10" transform="translate(0 10.038)">
        <g id="Group_9" data-name="Group 9" transform="translate(0 0)">
          <path id="Path_9" data-name="Path 9" d="M19.75,18.791H15.364a.77.77,0,0,0-.775.752v2.216h-.855V18.626a.741.741,0,0,0-.754-.74h-.454v-1.18s.01,0,.01-.006a6.693,6.693,0,0,0,3-2.195l.8-1.04a.754.754,0,0,0-.6-1.214H11.017V10.793a.755.755,0,0,0-1.509,0v1.459H4.787a.755.755,0,0,0-.6,1.214l.8,1.04a6.708,6.708,0,0,0,3,2.195s.01,0,.01.006v1.18H7.545a.741.741,0,0,0-.754.74V21.76H5.936V19.543a.77.77,0,0,0-.775-.752H.775A.77.77,0,0,0,0,19.543v5.942a.77.77,0,0,0,.775.752H5.161a.77.77,0,0,0,.775-.752V23.269h.855v2.866a.756.756,0,0,0,.754.756H12.98a.756.756,0,0,0,.754-.756V23.269h.855v2.216a.77.77,0,0,0,.775.752H19.75a.77.77,0,0,0,.775-.752V19.543A.77.77,0,0,0,19.75,18.791ZM4.427,24.225H1.509V23.017H4.427Zm0-2.214H1.509V20.8H4.427Zm14.589,2.214H16.1V23.017h2.918Zm0-2.214H16.1V20.8h2.918Z" transform="translate(0 -10.038)"/>
        </g>
      </g>
    </g>
  </g>
</svg>
